<svg xmlns="http://www.w3.org/2000/svg" viewBox="0 0 100 100">
  <defs>
    <style>
      .a {
        fill: #606060;
      }

      .b {
        fill: #c5daff;
      }
    </style>
  </defs>
  <circle class="a" cx="50" cy="50" r="50"/>
  <circle class="b" cx="50" cy="50" r="50"/>
  <g>
    <path d="M27.37,59.94c-.08-2.53.66-5.09,1.14-8.41,3.45,5,6.71,9.31,9.45,13.92,1.62,2.73.5,5.31-1.92,6.23-3.91,1.48-6.88.37-7.93-3-.28-.92-.51-1.86-.82-3"/>
    <path d="M67,52a23.33,23.33,0,0,1-16,12.7c-2.07.5-4.55.85-5.73-1.78-1.11-2.47,0-6.79,2.2-8a11.92,11.92,0,0,1,4.3-1.23C56.7,53.1,61.68,52.62,67,52Z"/>
    <path d="M72.66,40c-3.88,5.35-8,10.68-15.07,12.39-3,.7-5.25-.64-6.31-3.55a4.8,4.8,0,0,1,2.46-6.29,13.86,13.86,0,0,1,4.63-1.34C63.08,40.68,67.81,40.38,72.66,40Z"/>
    <path d="M49.08,12.9c1.2,3.17,2.1,6,3.33,8.61a11.65,11.65,0,0,0,3,4.1c1.92,1.57,3.16,3.4,2.14,5.64a7,7,0,0,1-3.7,3.39c-2.42.82-5.24.47-6.58-2a16.24,16.24,0,0,1-1.84-6.76C45.22,21.36,46,17,49.08,12.9Z"/>
    <path d="M68.62,10.52c0,4,.21,8-.06,12-.24,3.57-2.38,6.25-5,6.06a9.43,9.43,0,0,1-5.44-2.36,4.25,4.25,0,0,1,0-5.82c3-3.62,6.28-7,9.45-10.52Z"/>
    <path d="M42.39,27.52c2.28,4.8,4.56,9.27,6.47,13.88.46,1.11.18,3.52-.55,3.94a12,12,0,0,1-6,1.54c-2.19-.08-3.31-2-3.7-4.14C37.61,37,38.51,31.82,42.39,27.52Z"/>
    <path d="M59.33,65.18c-2.34,3.91-5.22,7.68-9.52,9.76a14.54,14.54,0,0,1-7.36,1.15c-1.22-.11-3.06-2-3.2-3.31-.16-1.45,1-3.29,2.07-4.56.68-.8,2.21-1.06,3.4-1.22C49.52,66.33,54.33,65.79,59.33,65.18Z"/>
    <path d="M35.18,40.58c2.62,3.8,5.15,7.55,7.78,11.24,1.15,1.61,2.59,3.46,1,5.1a10.4,10.4,0,0,1-5.32,2.55c-2,.41-3.65-.83-4.44-2.85A18.15,18.15,0,0,1,35.18,40.58Z"/>
    <path d="M78.13,28.65C74.31,33.3,70.51,38.1,63.84,39A4.36,4.36,0,0,1,61.32,39C60,38.21,58.25,37.28,58,36.1A4.89,4.89,0,0,1,59.52,32a11.74,11.74,0,0,1,5.29-1.76C69.2,29.57,73.63,29.16,78.13,28.65Z"/>
    <path d="M25.12,91.64c1.68-3.51,3.08-6.2,4.27-9s2.13-5.67,3.27-8.74l6.27,2.68c-3.35,4.86-6.6,9.73-10.07,14.44C28.42,91.63,26.86,91.39,25.12,91.64Z"/>
  </g>
</svg>
