<svg xmlns="http://www.w3.org/2000/svg" viewBox="0 0 100 100">
  <defs>
    <style>
      .a {
        fill: #ab0080;
      }

      .b {
        fill: #fff;
      }
    </style>
  </defs>
  <g>
    <circle class="a" cx="50" cy="50" r="50"/>
    <path class="b" d="M35.75,24.63c-13.24,0-24.09-11.75-24.09,1.5,0,31.47,10.74,58.44,24,58.44s24-28.47,24-58.44C59.62,12.88,49,24.63,35.75,24.63ZM20.65,47.48A5.37,5.37,0,1,1,26,52.85,5.37,5.37,0,0,1,20.65,47.48Zm15,30.41A9.64,9.64,0,0,1,26,68.25c0-5.33,19.29-5.33,19.29,0A9.64,9.64,0,0,1,35.64,77.89Zm9.93-25a5.37,5.37,0,1,1,5.37-5.37A5.36,5.36,0,0,1,45.57,52.85Z"/>
    <path class="b" d="M76.65,45.18c-8.45,0-15.37-7.49-15.37,1,0,20.07,6.85,37.28,15.29,37.28s15.3-18.17,15.3-37.28C91.87,37.69,85.09,45.18,76.65,45.18ZM67,59.76a3.43,3.43,0,1,1,3.43,3.42A3.43,3.43,0,0,1,67,59.76Zm9.56,19.4c-3.39,0-6.15-6.15-6.15-6.15,1.31,1.53,9.64.76,12.31,0C82.73,73,80,79.16,76.57,79.16Zm6.34-16a3.42,3.42,0,1,1,3.42-3.42A3.42,3.42,0,0,1,82.91,63.18Z"/>
  </g>
</svg>
