<svg xmlns="http://www.w3.org/2000/svg" viewBox="0 0 100 100">
  <defs>
    <style>
      .a {
        fill: #008ea5;
      }

      .b {
        fill: #fff;
      }
    </style>
  </defs>
  <g>
    <circle class="a" cx="50" cy="50" r="50"/>
    <path class="b" d="M74.49,19.82h.34C79.24,27.38,83.63,35,88.06,42.5,90,45.81,92,49.08,94,52.36v.34L84,58.57l-2-3.08c-.89,1.53-1.69,2.85-2.42,4.22A2.18,2.18,0,0,0,79.45,61c.39,3.42-1,5.77-4.13,7.24A2.69,2.69,0,0,0,74,69.65a6.19,6.19,0,0,1-4.1,4.28,2.43,2.43,0,0,0-1.34,1.23,7.18,7.18,0,0,1-5.4,5,2.82,2.82,0,0,0-1.57.78,8.92,8.92,0,0,1-5.19,3.67H54c-.91-.39-1.85-.72-2.72-1.18a5.34,5.34,0,0,0-3.94-.58,5.94,5.94,0,0,1-6.57-2.61,2,2,0,0,0-1.53-.67c-2.86.25-5.37-.88-6.36-3.32a1.92,1.92,0,0,0-2.25-1.36,5.34,5.34,0,0,1-5.49-3.55,23.06,23.06,0,0,1-.54-2.39l-.32.42a20.67,20.67,0,0,1-4.1-2.55c-1.89-1.89-1.79-4.3-1-6.73a2.86,2.86,0,0,0,.15-1.67,23.48,23.48,0,0,0-1.48-2.83l-1.89,3L6,52.7v-.34a4.63,4.63,0,0,0,.61-.73q8.75-15,17.46-29.9c.33-.56.68-1.11,1.11-1.83l10,5.78-1.44,2.67c2-.35,3.7-.74,5.45-1,3.51-.45,7-1.41,10.5.41.3.16.83-.13,1.25-.18a36.36,36.36,0,0,1,5.76-.51c3.08.19,6.13.74,9.36,1.17l-1.36-2.55,2.77-1.67ZM58.1,79.71c-1.5-1-2.91-1.9-4.24-2.88-.87-.63-1.78-1.37-.83-2.6s1.77-.88,2.77-.17a31.87,31.87,0,0,0,3.5,2.29,4.27,4.27,0,0,0,5.2-.86c.72-.91.83-1.59-.39-2.23A34.7,34.7,0,0,1,60,70.7C59.1,70,58.54,69,59.37,68s1.81-.57,2.7,0a36.47,36.47,0,0,0,3.55,2.19,5.46,5.46,0,0,0,3,.5c.7-.14,1.34-1,1.76-1.77.1-.17-.73-1-1.24-1.38C68,66.6,66.72,65.9,65.58,65c-.87-.67-1.58-1.59-.78-2.73s1.87-.62,2.8,0c1.34.81,2.6,1.75,4,2.48a3,3,0,0,0,4.08-1.14c1-1.55.06-2.38-1-3.37Q65.93,51.8,57.27,43.27c-1.48-1.47-2.47-1.81-4.39-.9a20,20,0,0,0-2.44,1.44c-3.21,2.13-6.39,4.3-9.61,6.42a6,6,0,0,1-2,.85,5.27,5.27,0,0,1-5.64-2.72A5,5,0,0,1,33.74,42c3.58-3.66,7.38-7.11,11.09-10.65.32-.31.68-.58,1-.87L45.65,30c-3.56.63-7.14,1.16-10.67,1.92a8.67,8.67,0,0,0-5.93,4.5c-2.38,4.23-4.94,8.35-7.41,12.53a6.37,6.37,0,0,0,.91,7.64c4.54-1.24,7.44.32,9,4.74a1.85,1.85,0,0,0,1.23,1,6.18,6.18,0,0,1,4.85,4.14,2.19,2.19,0,0,0,1.31,1.15c4.25,1,6.09,3.5,5.5,7.82,3,1.74,6.1,3.56,9.24,5.24C55.21,81.43,56.67,81.05,58.1,79.71ZM76.9,57.82a32.35,32.35,0,0,0,1.47-3.21c.73-2.28.91-4.44-.57-6.67a89.83,89.83,0,0,1-6-10.24c-2-4.07-5.16-5.94-9.44-6.4A15.79,15.79,0,0,1,60.21,31C54.76,29.59,50,31.07,46,34.79c-3.15,2.92-6.12,6-9.19,9-1,1-1.3,1.93-.39,3.08s2,.72,3.07,0c3.43-2.29,6.82-4.66,10.33-6.82a9.1,9.1,0,0,1,4.46-1.61,76.88,76.88,0,0,1,9.41,1,1.6,1.6,0,0,1,1.38,2.1c-.24,1.21-1.18,1.16-2.1,1.1l-1.08-.06-.28.42ZM24.47,65.36c1.78,0,3.7-1.52,3.68-3a3.18,3.18,0,0,0-2.93-2.74,3.25,3.25,0,0,0-3.06,3.16A2.48,2.48,0,0,0,24.47,65.36Zm9.84,2.69a2.2,2.2,0,0,0-2.18-2.25,4.06,4.06,0,0,0-3.64,3.71,1.79,1.79,0,0,0,2,2A3.91,3.91,0,0,0,34.31,68.05ZM41,73.62a2.52,2.52,0,0,0-2.3-2.6,3,3,0,0,0-2.78,2.79c-.1,1.58.92,2,2.17,2.2A2.7,2.7,0,0,0,41,73.62Z"/>
  </g>
</svg>
