<svg xmlns="http://www.w3.org/2000/svg" viewBox="0 0 100 100">
  <defs>
    <style>
      .a {
        fill: #0063f2;
      }

      .b {
        fill: none;
        stroke: #fff;
        stroke-linecap: round;
        stroke-miterlimit: 10;
        stroke-width: 6px;
      }

      .c {
        fill: #fff;
      }
    </style>
  </defs>
  <g>
    <circle class="a" cx="50" cy="50" r="50"/>
    <line class="b" x1="41.8" y1="14.66" x2="58.19" y2="14.66"/>
    <path class="c" d="M77.78,83.25l-3.09-9.16H70.55a.59.59,0,0,1-.6-.59.6.6,0,0,1,.6-.6h3.73L71.4,64.37h-4a.59.59,0,0,1-.59-.6.58.58,0,0,1,.59-.59H71l-2.89-8.54H64.26a.59.59,0,0,1-.6-.59.6.6,0,0,1,.6-.6h3.45l-2.88-8.53H61.11a.6.6,0,1,1,0-1.19h3.31L61.54,35.2H58a.59.59,0,0,1-.59-.6A.58.58,0,0,1,58,34h3.18L56.86,21.35H43.13l-21.4,61.9"/>
  </g>
</svg>
