<svg xmlns="http://www.w3.org/2000/svg" viewBox="0 0 100 100">
  <defs>
    <style>
      .a {
        fill: #000d4c;
      }

      .b {
        fill: #fff;
      }
    </style>
  </defs>
  <g>
    <circle class="a" cx="50" cy="50" r="50"/>
    <g>
      <path class="b" d="M50,83.82A33.82,33.82,0,1,1,83.82,50.56,33.86,33.86,0,0,1,50,83.82ZM18.09,50.53l-.05.19c.57.29,1.12.61,1.71.86A4.68,4.68,0,0,1,22.65,54c.58,1.39,1.3,2.72,2,4.06a11.87,11.87,0,0,0,4.77,5.32,20.66,20.66,0,0,1,2.71,1.86,10.43,10.43,0,0,1,1.71,1.61c.63.75.47,1.36-.44,1.69a1.7,1.7,0,0,0-1.19,1.5,22.28,22.28,0,0,0,.36,7.33.89.89,0,0,0,.41.49A31.86,31.86,0,0,0,56.53,82a31.73,31.73,0,0,0,20.68-14,31.87,31.87,0,0,0,4.86-24.3c0-.19-.17-.47-.33-.53-1.44-.6-2.89-1.22-4.38-1.71a9.56,9.56,0,0,0-2.09-.24l-.1.23a10.42,10.42,0,0,0,.63,1c.55.68,1.11,1.34,1.69,2a3.59,3.59,0,0,1,1,2.85A6.09,6.09,0,0,1,75.37,52c-.19-.48-.35-.87-.49-1.27a11.65,11.65,0,0,0-.55-1.57c-1.4-2.63-2.89-5.21-4.25-7.86a5.62,5.62,0,0,0-4.36-3.19,10.6,10.6,0,0,1-4.28-1.69c-1.13-.77-2.33-1.43-3.5-2.13a7.24,7.24,0,0,0-.69-.31c.36,1.54,1.58,2.11,2.55,2.88-.44.66-.81.79-1.48.54a3.44,3.44,0,0,1-.66-.34,3.07,3.07,0,0,0-3.4,0c-.75.44-1.47.95-2.25,1.31a8.38,8.38,0,0,1-2.28.71c-.85.11-1.23-.6-.8-1.36a4.19,4.19,0,0,1,.72-1,3.88,3.88,0,0,0,1.22-3.14,3,3,0,0,1,1.6-2.81c.6-.37,1.21-.73,1.77-1.15a2.81,2.81,0,0,0,1-3.1c-.1-.42-.2-.84-.32-1.26a1.41,1.41,0,0,1,.57-1.7,8.84,8.84,0,0,1,2.3-1c.78-.2,1.07.25.77,1-.06.14-.11.29-.17.45.76.11,1.09-.08,1.21-.74a2.59,2.59,0,0,0,0-.92c-.2-1.22-.42-2.43-.65-3.76a31.76,31.76,0,0,0-20.78,1.05,2.79,2.79,0,0,1-.57.87c-.27.27-.77.44-.85.74-.27,1-1,1.21-1.83,1.44a19.18,19.18,0,0,0-2.44.88,1.88,1.88,0,0,0-1.21,1.61,1.56,1.56,0,0,0,.4,1.14,1.35,1.35,0,0,0,1.12,0A6.53,6.53,0,0,0,34,25.47a18.31,18.31,0,0,1,1.9-1.37c.67-.37,1.12,0,1.12.74a3.4,3.4,0,0,1-.87,2.34A23.82,23.82,0,0,1,34.27,29a2.1,2.1,0,0,1-1.1.53A1.49,1.49,0,0,0,31.69,31a1.75,1.75,0,0,1-1.44,1.37c-.32.07-.65.11-1,.15a7.33,7.33,0,0,0-3.35.78c-.75.5-1.42,1.12-2.15,1.66s-1.41,1-2.14,1.44A3.94,3.94,0,0,0,20,38.58c-.21.61-.47,1.21-.7,1.81l-.25-.1.83-2.42-.16,0a32.68,32.68,0,0,0-2.36,13.29Z"/>
      <path class="b" d="M53,59.36c-1.57,0-3.15,0-4.72,0-2.62-.1-4.07-1.67-5-4a7.22,7.22,0,0,1,.22-6c1.8-3.76,4-7.2,7.62-9.51a7.84,7.84,0,0,1,4.6-1.63,1.57,1.57,0,0,1,1.47.91,5,5,0,0,0,4,2.44c1.14.16,2.31.18,3.46.24a5.14,5.14,0,0,1,4.43,2.65c.63,1.1,1.19,2.23,1.82,3.32a12.58,12.58,0,0,0,5.74,4.93c.61.29,1,.63.92,1.28a14.2,14.2,0,0,1-.43,2.86,46.29,46.29,0,0,1-4.55,10.57,64.75,64.75,0,0,1-5.22,6.93,53.19,53.19,0,0,1-4.49,4.52,6.58,6.58,0,0,1-2,1.17,1.07,1.07,0,0,1-1.65-.75,10.43,10.43,0,0,1-.61-2.89c0-2.52,0-5,.08-7.56a22.15,22.15,0,0,0-.48-6.29c-.58-2.09-1.83-3.41-4.31-3.27H53Z"/>
      <path class="b" d="M44,19.14a8.39,8.39,0,0,0,1.33-.22,5.62,5.62,0,0,1,2.82,0A1.09,1.09,0,0,1,49,20.51a5.13,5.13,0,0,1-.73,1.21,4.79,4.79,0,0,1-3.13,2.2,7.33,7.33,0,0,0-4.55,2.57,3.71,3.71,0,0,1-1.19.86c-.2.1-.67.09-.72,0a1,1,0,0,1,0-.85,15.77,15.77,0,0,1,1.49-2.05,5.36,5.36,0,0,1,1.75-1.51c.43-.19.61-.92.9-1.41A1.15,1.15,0,0,0,42.58,20c-.32-.35-.17-.64.22-.76A8.51,8.51,0,0,1,43.94,19Z"/>
    </g>
    <path class="b" d="M50,16.2A33.83,33.83,0,1,1,16.17,50,33.83,33.83,0,0,1,50,16.2m0-4A37.83,37.83,0,1,0,87.83,50,37.87,37.87,0,0,0,50,12.2Z"/>
  </g>
</svg>
