<svg xmlns="http://www.w3.org/2000/svg" viewBox="0 0 100 100">
  <defs>
    <style>
      .a {
        fill: #4c4c4c;
      }

      .b {
        fill: #fff;
      }
    </style>
  </defs>
  <circle class="a" cx="50" cy="50" r="50"/>
  <path class="b" d="M50.22,18.06A7.89,7.89,0,1,1,42.33,26a7.9,7.9,0,0,1,7.89-7.89m0-5A12.89,12.89,0,1,0,63.11,26,12.89,12.89,0,0,0,50.22,13.06Z"/>
  <path class="b" d="M70.61,54.81a7.89,7.89,0,1,1-7.9,7.89,7.9,7.9,0,0,1,7.9-7.89m0-5A12.89,12.89,0,1,0,83.5,62.7,12.9,12.9,0,0,0,70.61,49.81Z"/>
  <path class="b" d="M29.13,54.81a7.89,7.89,0,1,1-7.89,7.89,7.9,7.9,0,0,1,7.89-7.89m0-5A12.89,12.89,0,1,0,42,62.7,12.89,12.89,0,0,0,29.13,49.81Z"/>
</svg>
