<svg xmlns="http://www.w3.org/2000/svg" viewBox="0 0 100 100">
  <defs>
    <style>
      .a {
        fill: #002a9e;
      }

      .b {
        fill: #fff;
      }
    </style>
  </defs>
  <g>
    <circle class="a" cx="50" cy="50" r="50"/>
    <path class="b" d="M50,10.55c.64.24,3.12,2.57,5.36,10.82,2.1,7.75,3.26,17.91,3.26,28.63s-1.16,20.88-3.26,28.63C53.12,86.88,50.64,89.21,50,89.45c-.64-.24-3.12-2.57-5.36-10.82-2.1-7.75-3.26-17.91-3.26-28.63s1.16-20.88,3.26-28.63c2.24-8.25,4.72-10.58,5.36-10.82m0-4C43,6.54,37.38,26,37.38,50S43,93.46,50,93.46,62.62,74,62.62,50,57,6.54,50,6.54Z"/>
    <path class="b" d="M19.22,29.41c7.77,0,21.57,5.17,35.15,13.17,9.24,5.44,17.41,11.59,23,17.33C83.35,66,84.11,69.35,84,70a6.26,6.26,0,0,1-3.21.57c-7.77,0-21.57-5.17-35.15-13.17-9.24-5.44-17.41-11.59-23-17.33C16.65,34,15.89,30.65,16,30a6.26,6.26,0,0,1,3.21-.57m0-4c-3.31,0-5.65.81-6.66,2.54C9,34,22.92,48.69,43.6,60.87c14.74,8.68,28.95,13.72,37.18,13.72,3.31,0,5.65-.81,6.66-2.54,3.54-6-10.36-20.74-31-32.92C41.66,30.45,27.45,25.41,19.22,25.41Z"/>
    <path class="b" d="M80.83,29.87c2.21,0,3.21.43,3.45.62.11.67-.69,4-6.75,10-5.69,5.65-14,11.69-23.27,17C40.76,65.17,27,70.13,19.17,70.13c-2.21,0-3.21-.43-3.45-.62-.11-.67.69-4,6.75-10,5.69-5.65,14-11.69,23.27-17C59.24,34.83,73,29.87,80.83,29.87m0-4c-8.27,0-22.38,4.81-37.07,13.17-20.86,11.87-35,26.4-31.53,32.45,1,1.79,3.47,2.64,6.94,2.64,8.27,0,22.38-4.81,37.07-13.17,20.86-11.87,35-26.4,31.53-32.45-1-1.79-3.47-2.64-6.94-2.64Z"/>
    <circle class="b" cx="49.59" cy="50" r="4.12"/>
  </g>
</svg>
