<svg xmlns="http://www.w3.org/2000/svg" viewBox="0 0 100 100">
  <defs>
    <style>
      .a {
        fill: #ef7f59;
      }

      .b {
        fill: #fff;
      }
    </style>
  </defs>
  <g>
    <circle class="a" cx="50" cy="50" r="50"/>
    <g>
      <circle class="b" cx="38.05" cy="19.72" r="8.08"/>
      <path class="b" d="M49.73,41.29c0-4.86-5.23-8.8-11.68-8.8s-11.67,3.94-11.67,8.8,5.23,28.79,11.67,28.79S49.73,46.15,49.73,41.29Z"/>
      <path class="b" d="M44,64.18c0-3.74-2.66-6.78-5.94-6.78s-5.93,3-5.93,6.78,2.66,22.16,5.93,22.16S44,67.92,44,64.18Z"/>
      <circle class="b" cx="64.83" cy="26.28" r="7.05"/>
      <path class="b" d="M73.62,45.1c0-4.24-3.93-7.68-8.79-7.68S56,40.86,56,45.1,60,70.24,64.83,70.24,73.62,49.35,73.62,45.1Z"/>
      <path class="b" d="M70,65.08c0-3.26-2.32-5.91-5.18-5.91s-5.18,2.65-5.18,5.91S62,84.42,64.83,84.42,70,68.34,70,65.08Z"/>
      <g>
        <path class="b" d="M10.88,31.25A7.84,7.84,0,0,0,13.37,16,49.91,49.91,0,0,0,4.88,28.45,7.81,7.81,0,0,0,10.88,31.25Z"/>
        <path class="b" d="M5.12,66.57C5.12,62.94,7.7,60,10.88,60s5.77,2.95,5.77,6.58v.08c3.69-7.19,6.19-19.08,6.19-22.3,0-4.72-5.35-8.54-12-8.54a13.85,13.85,0,0,0-9.75,3.6A50.67,50.67,0,0,0,0,50c0,.5,0,1,0,1.5A68.53,68.53,0,0,0,5.12,66.65Z"/>
        <path class="b" d="M10.88,72.3C8.8,72.3,6.83,70,5.12,66.65a60.37,60.37,0,0,0,.75,6.86,50.54,50.54,0,0,0,7.64,10.66,80,80,0,0,0,3.14-17.52C14.94,70,13,72.3,10.88,72.3Z"/>
        <path class="b" d="M10.88,60c-3.18,0-5.76,2.95-5.76,6.58v.08C6.83,70,8.8,72.3,10.88,72.3s4.06-2.32,5.77-5.65v-.08C16.65,62.94,14.07,60,10.88,60Z"/>
      </g>
    </g>
  </g>
</svg>
